<svg width="20" height="15" viewBox="0 0 20 15" fill="none" xmlns="http://www.w3.org/2000/svg">
<path d="M14.4444 5.93787H1.11111C0.816426 5.93787 0.533811 6.05757 0.325437 6.27063C0.117063 6.48368 0 6.77265 0 7.07397V7.92604C0 8.22735 0.117063 8.51632 0.325437 8.72938C0.533811 8.94244 0.816426 9.06213 1.11111 9.06213H14.4444C14.7391 9.06213 15.0217 8.94244 15.2301 8.72938C15.4385 8.51632 15.5556 8.22735 15.5556 7.92604V7.07397C15.5556 6.77265 15.4385 6.48368 15.2301 6.27063C15.0217 6.05757 14.7391 5.93787 14.4444 5.93787ZM10 11.8757H1.11111C0.816426 11.8757 0.533811 11.9954 0.325437 12.2085C0.117063 12.4216 0 12.7105 0 13.0118V13.8639C0 14.1652 0.117063 14.4542 0.325437 14.6672C0.533811 14.8803 0.816426 15 1.11111 15H10C10.2947 15 10.5773 14.8803 10.7857 14.6672C10.994 14.4542 11.1111 14.1652 11.1111 13.8639V13.0118C11.1111 12.7105 10.994 12.4216 10.7857 12.2085C10.5773 11.9954 10.2947 11.8757 10 11.8757ZM18.8889 0H1.11111C0.816426 0 0.533811 0.119695 0.325437 0.332754C0.117063 0.545814 0 0.834784 0 1.13609V1.98817C0 2.28948 0.117063 2.57845 0.325437 2.79151C0.533811 3.00457 0.816426 3.12426 1.11111 3.12426H18.8889C19.1836 3.12426 19.4662 3.00457 19.6746 2.79151C19.8829 2.57845 20 2.28948 20 1.98817V1.13609C20 0.834784 19.8829 0.545814 19.6746 0.332754C19.4662 0.119695 19.1836 0 18.8889 0Z" fill="#4F4F4F"/>
</svg>
