<svg width="16" height="16" viewBox="0 0 16 16" fill="none" xmlns="http://www.w3.org/2000/svg">
<path fill-rule="evenodd" clip-rule="evenodd" d="M7.32075 8C7.32075 6.44444 6.13208 5.18803 4.66038 5.18803C3.18868 5.18803 2 6.44444 2 8C2 9.55556 3.18868 10.812 4.66038 10.812C6.13208 10.812 7.32075 9.55556 7.32075 8ZM8.18401 4.27559C8.04902 4.41827 8.05026 4.64067 8.17499 4.7924C8.88424 5.65524 9.30189 6.75404 9.30189 8C9.30189 9.24615 8.8841 10.3942 8.17465 11.2663C8.05254 11.4164 8.05798 11.6376 8.199 11.7701C8.33933 11.9019 8.56083 11.8961 8.68345 11.7477C9.50489 10.753 9.98113 9.42685 9.98113 8C9.98113 6.58895 9.51538 5.27637 8.71062 4.28552C8.57669 4.12062 8.33001 4.12128 8.18401 4.27559ZM9.59936 2.77959C9.4651 2.92151 9.46853 3.14369 9.59825 3.28977C10.6977 4.52795 11.3396 6.21178 11.3396 8C11.3396 9.84678 10.6958 11.4842 9.59345 12.7653C9.46724 12.912 9.47307 13.1333 9.61409 13.2658C9.75442 13.3976 9.97562 13.3917 10.1012 13.2457C11.2703 11.8865 12.0189 10.0224 12.0189 8C12.0189 5.99065 11.2799 4.18958 10.1237 2.7911C9.98938 2.62863 9.74424 2.62646 9.59936 2.77959ZM11.0165 1.28169C10.8809 1.42502 10.8836 1.64935 11.0156 1.79602C12.4559 3.39683 13.3208 5.61775 13.3208 8C13.3208 10.4423 12.4536 12.6149 11.0097 14.2621C10.8822 14.4076 10.8882 14.629 11.0292 14.7615C11.1695 14.8934 11.3906 14.8873 11.5178 14.7428C13.0746 12.974 14 10.6229 14 8C14 5.44836 13.0848 3.05794 11.5436 1.28713C11.4053 1.12827 11.1613 1.12871 11.0165 1.28169Z" fill="#4F4F4F" stroke="#4F4F4F" stroke-width="0.776073"/>
</svg>
