<svg width="20" height="20" viewBox="0 0 20 20" fill="none" xmlns="http://www.w3.org/2000/svg">
<path d="M8.14694 1.66663C11.7187 1.66663 14.6273 4.57519 14.6273 8.14698C14.6273 9.69872 14.083 11.1214 13.1692 12.2377L18.3333 17.4017L17.4017 18.3333L12.2377 13.1693C11.1213 14.0831 9.69868 14.6273 8.14694 14.6273C4.57515 14.6273 1.66658 11.7188 1.66658 8.14698C1.66658 4.57519 4.57515 1.66663 8.14694 1.66663ZM8.14694 2.9627C5.27635 2.9627 2.96266 5.27639 2.96266 8.14698C2.96266 11.0176 5.27635 13.3313 8.14694 13.3313C11.0175 13.3313 13.3312 11.0176 13.3312 8.14698C13.3312 5.27639 11.0175 2.9627 8.14694 2.9627Z" fill="black" fill-opacity="0.32"/>
</svg>
