<svg width="46" height="32" viewBox="0 0 46 32" fill="none" xmlns="http://www.w3.org/2000/svg">
<path fill-rule="evenodd" clip-rule="evenodd" d="M17.8245 26.7865C17.8245 29.6706 20.1126 32 23.0545 32C25.8874 32 28.1755 29.6706 28.1755 26.7865C28.1755 24.4571 26.6501 22.4604 24.4709 21.7949L23.4254 13.2819C23.3699 12.8296 22.7152 12.8266 22.6555 13.2783L21.5291 21.7949C19.3499 22.4604 17.8245 24.4571 17.8245 26.7865ZM2.13438 23.3506C3.03703 23.3506 3.76182 22.6163 3.83411 21.7166C4.64567 11.6151 12.9171 3.71683 23.0545 3.71683C33.1064 3.71683 41.4828 11.6434 42.2784 21.7709C42.3467 22.6407 43.0475 23.3506 43.9201 23.3506C44.7927 23.3506 45.5056 22.6409 45.4475 21.7703C44.6535 9.86566 34.9539 0.5 23.0545 0.5C11.0689 0.5 1.37629 9.83712 0.556215 21.7159C0.494047 22.6164 1.23174 23.3506 2.13438 23.3506ZM23.0545 29.4487C21.5291 29.4487 20.4395 28.2285 20.4395 26.7865C20.4395 25.3445 21.5291 24.2352 23.0545 24.2352C24.4709 24.2352 25.5605 25.3445 25.5605 26.7865C25.5605 28.2285 24.4709 29.4487 23.0545 29.4487Z" fill="black" fill-opacity="0.64"/>
</svg>
