<svg width="28" height="36" viewBox="0 0 28 36" fill="none" xmlns="http://www.w3.org/2000/svg">
<path d="M13.2408 1.83925L12.1161 0.846794L12.1154 0.847636L13.2408 1.83925ZM14.0004 1.5V0V1.5ZM14.76 1.83925L15.8856 0.847812L15.8847 0.846795L14.76 1.83925ZM22.8333 23.502C22.8333 22.6736 22.1618 22.002 21.3333 22.002C20.5049 22.002 19.8333 22.6736 19.8333 23.502H22.8333ZM15.3333 27.8245C14.5049 27.8245 13.8333 28.4961 13.8333 29.3245C13.8333 30.1529 14.5049 30.8245 15.3333 30.8245V27.8245ZM24.5 22.8551C24.5 26.0957 23.4567 28.5927 21.7169 30.2809C19.9722 31.974 17.3759 33 14 33V36C17.9883 36 21.3919 34.7767 23.8062 32.4339C26.2254 30.0862 27.5 26.7607 27.5 22.8551H24.5ZM14 33C10.6241 33 8.02775 31.974 6.28305 30.2809C4.54331 28.5927 3.5 26.0957 3.5 22.8551H0.5C0.5 26.7607 1.77461 30.0862 4.19382 32.4339C6.60808 34.7767 10.0117 36 14 36V33ZM3.5 22.8551C3.5 19.4798 5.43621 15.289 7.8987 11.3963C10.3191 7.57003 13.0718 4.30017 14.3663 2.83086L12.1154 0.847636C10.7716 2.37285 7.90379 5.77657 5.36339 9.79246C2.86504 13.7419 0.5 18.5617 0.5 22.8551H3.5ZM14.3656 2.8317C14.3156 2.88828 14.2565 2.93059 14.194 2.95849L12.9706 0.219273C12.6459 0.364298 12.3538 0.577425 12.1161 0.846795L14.3656 2.8317ZM14.194 2.95849C14.1317 2.98635 14.0658 3 14.0004 3V0C13.6464 0 13.2952 0.0742961 12.9706 0.219273L14.194 2.95849ZM14.0004 3C13.9351 3 13.8692 2.98635 13.8068 2.95849L15.0302 0.219273C14.7056 0.0742966 14.3544 0 14.0004 0V3ZM13.8068 2.95849C13.7443 2.93059 13.6852 2.88828 13.6353 2.8317L15.8847 0.846795C15.6471 0.577425 15.3549 0.364298 15.0302 0.219273L13.8068 2.95849ZM13.6344 2.83068C14.9286 4.30011 17.6811 7.57 20.1014 11.3962C22.5638 15.289 24.5 19.4798 24.5 22.8551H27.5C27.5 18.5617 25.135 13.7419 22.6367 9.79248C20.0964 5.7766 17.2289 2.3729 15.8856 0.847812L13.6344 2.83068ZM19.8333 23.502C19.8333 24.6336 19.3705 25.7283 18.5314 26.5427L20.6206 28.6956C22.0319 27.3261 22.8333 25.4588 22.8333 23.502H19.8333ZM18.5314 26.5427C17.6907 27.3585 16.5411 27.8245 15.3333 27.8245V30.8245C17.3082 30.8245 19.2108 30.0636 20.6206 28.6956L18.5314 26.5427Z" fill="black" fill-opacity="0.64"/>
</svg>
