<svg width="24" height="36" viewBox="0 0 24 36" fill="none" xmlns="http://www.w3.org/2000/svg">
<path d="M11.9995 36C15.1822 36 18.2346 34.6769 20.4851 32.3218C22.7357 29.9667 24 26.7725 24 23.4419C24 21.9918 23.632 20.6004 23.2 19.306C20.5327 22.0638 18.507 23.4419 17.1197 23.4419C23.512 11.7209 19.9998 6.69767 10.3994 0C11.1995 8.37209 5.92563 12.1797 3.77834 14.2945C2.02679 16.0186 0.810592 18.2536 0.287443 20.7098C-0.235706 23.1659 -0.0416781 25.7298 0.844368 28.0692C1.73041 30.4085 3.26761 32.4153 5.25665 33.8295C7.24569 35.2436 9.59483 35.9998 11.9995 36ZM13.1355 6.25395C18.3214 10.8586 18.347 14.4368 14.3404 21.7825C13.1227 24.0145 14.6636 26.7907 17.1197 26.7907C18.2206 26.7907 19.3342 26.4558 20.5103 25.7944C20.1617 27.1724 19.5121 28.447 18.6128 29.5176C17.7135 30.5883 16.589 31.4259 15.3277 31.9644C14.0665 32.503 12.703 32.7278 11.3447 32.6212C9.9863 32.5145 8.67013 32.0794 7.49979 31.35C6.32944 30.6206 5.33689 29.6168 4.60027 28.4177C3.86365 27.2186 3.40308 25.857 3.25483 24.44C3.10657 23.023 3.27468 21.5893 3.74591 20.2518C4.21715 18.9143 4.97864 17.7096 5.97043 16.7325C6.17204 16.5349 7.19448 15.5855 7.23929 15.5436C7.91771 14.9073 8.47614 14.3431 9.02816 13.7252C10.9962 11.5183 12.4107 9.07033 13.1339 6.25395H13.1355Z" fill="black" fill-opacity="0.64"/>
</svg>
